<?xml version="1.0" standalone="no"?><svg xmlns="http://www.w3.org/2000/svg" viewBox="0 0 1440 320"><path fill="#273036" fill-opacity="1" d="M0,160L16,160C32,160,64,160,96,133.3C128,107,160,53,192,74.7C224,96,256,192,288,208C320,224,352,160,384,133.3C416,107,448,117,480,138.7C512,160,544,192,576,197.3C608,203,640,181,672,144C704,107,736,53,768,37.3C800,21,832,43,864,64C896,85,928,107,960,133.3C992,160,1024,192,1056,208C1088,224,1120,224,1152,192C1184,160,1216,96,1248,80C1280,64,1312,96,1344,101.3C1376,107,1408,85,1424,74.7L1440,64L1440,320L1424,320C1408,320,1376,320,1344,320C1312,320,1280,320,1248,320C1216,320,1184,320,1152,320C1120,320,1088,320,1056,320C1024,320,992,320,960,320C928,320,896,320,864,320C832,320,800,320,768,320C736,320,704,320,672,320C640,320,608,320,576,320C544,320,512,320,480,320C448,320,416,320,384,320C352,320,320,320,288,320C256,320,224,320,192,320C160,320,128,320,96,320C64,320,32,320,16,320L0,320Z"></path></svg>