<?xml version="1.0" standalone="no"?><svg xmlns="http://www.w3.org/2000/svg" viewBox="0 0 1440 320"><path fill="#273036" fill-opacity="1" d="M0,160L21.8,176C43.6,192,87,224,131,229.3C174.5,235,218,213,262,186.7C305.5,160,349,128,393,133.3C436.4,139,480,181,524,197.3C567.3,213,611,203,655,165.3C698.2,128,742,64,785,48C829.1,32,873,64,916,90.7C960,117,1004,139,1047,133.3C1090.9,128,1135,96,1178,106.7C1221.8,117,1265,171,1309,186.7C1352.7,203,1396,181,1418,170.7L1440,160L1440,320L1418.2,320C1396.4,320,1353,320,1309,320C1265.5,320,1222,320,1178,320C1134.5,320,1091,320,1047,320C1003.6,320,960,320,916,320C872.7,320,829,320,785,320C741.8,320,698,320,655,320C610.9,320,567,320,524,320C480,320,436,320,393,320C349.1,320,305,320,262,320C218.2,320,175,320,131,320C87.3,320,44,320,22,320L0,320Z"></path></svg>